<svg id="Layer_1" data-name="Layer 1" xmlns="http://www.w3.org/2000/svg" viewBox="0 0 898.26 429.92"><defs><style>.cls-1,.cls-2,.cls-3{fill:none;}.cls-1{stroke:#a2d49e;}.cls-1,.cls-2{stroke-miterlimit:10;stroke-width:6px;}.cls-2{stroke:#28bdbc;}</style></defs><polyline class="cls-1" points="654.37 321.28 526.8 321.28 526.8 140 479.8 140 654.37 2.36"/><polyline class="cls-1" points="654.37 321.28 781.93 321.28 781.93 140 828.93 140 654.37 2.36"/><circle class="cls-2" cx="642.45" cy="197.08" r="6.24"/><circle class="cls-2" cx="655.45" cy="107.53" r="13"/><path class="cls-2" d="M458.12,448.07s-109.69,10.77-106.34,8.31c.49-.37-1.58-1.84-5.48-4.08-22.42-12.93-105.15-51.46-105.15-51.46s24-14.06,68.93,9.1q5.31,2.74,11,6.2c24.12,7.32,72.71-9,54-9.59-11.18-.36-64.37-9.52-60.22-32.79,0,0,135.9,28,158.74,40.48" transform="translate(423.23 -29.83)"/><path class="cls-2" d="M24.17,448.07s109.69,10.77,106.34,8.31c-.49-.37,1.58-1.84,5.48-4.08,22.42-12.93,105.16-51.46,105.16-51.46s-24-14.06-68.93,9.1q-5.33,2.74-11,6.2c-24.12,7.32-72.71-9-54-9.59,11.18-.36,64.37-9.52,60.22-32.79,0,0-135.9,28-158.74,40.48" transform="translate(423.23 -29.83)"/><path class="cls-2" d="M227.76,165.94s-83.59,52.82,0,158.44C227.76,324.38,187.83,206.79,227.76,165.94Z" transform="translate(423.23 -29.83)"/><path class="cls-2" d="M230.38,226.9s4.23-6.64,9.86,0v102" transform="translate(423.23 -29.83)"/><polygon class="cls-3" points="13.13 337.94 7.9 331.95 0 332.86 4.08 326.03 0.78 318.8 8.53 320.58 14.39 315.2 15.09 323.12 22.02 327.03 14.7 330.15 13.13 337.94"/></svg>